<svg id="Capa_1" enable-background="new 0 0 512 512" height="512" viewBox="0 0 512 512" width="512" xmlns="http://www.w3.org/2000/svg"><g><path d="m392.304 196.807c-10.131-16.393-24.597-29.613-41.834-38.231l-34.157-17.078c-2.909-1.455-4.716-4.379-4.716-7.631v-47.954c9.308-3.139 16.032-11.946 16.032-22.3 0-12.976-10.557-23.532-23.532-23.532h-2.178l6.154-20.001c1.463-4.756.607-9.779-2.349-13.781-2.955-4.003-7.505-6.299-12.481-6.299h-74.486c-4.976 0-9.525 2.296-12.481 6.298s-3.812 9.026-2.349 13.781l6.154 20.001h-2.178c-12.976 0-23.532 10.557-23.532 23.532 0 10.354 6.724 19.16 16.032 22.3v47.953c0 3.253-1.807 6.177-4.716 7.631l-34.157 17.078c-17.237 8.618-31.703 21.839-41.834 38.231-10.131 16.393-15.487 35.244-15.487 54.515v229.13c0 17.396 14.153 31.548 31.549 31.548h240.483c17.396 0 31.549-14.152 31.549-31.548v-229.13c.001-19.269-5.355-38.12-15.486-54.513zm-184.401-141.726h40.081c4.142 0 7.5-3.358 7.5-7.5s-3.358-7.5-7.5-7.5h-22.209l-7.512-24.413c-.024-.081-.076-.249.078-.458.155-.21.331-.21.416-.21h74.486c.084 0 .261 0 .416.209.154.209.103.377.078.458l-7.512 24.413h-6.177c-4.142 0-7.5 3.358-7.5 7.5s3.358 7.5 7.5 7.5h24.049c4.705 0 8.532 3.828 8.532 8.532 0 4.705-3.828 8.532-8.532 8.532h-96.193c-4.705 0-8.532-3.828-8.532-8.532-.001-4.704 3.827-8.531 8.531-8.531zm63.841 32.064-5.138 16.7c-.067.218-.266.365-.494.365h-20.224c-.228 0-.426-.146-.493-.364l-5.138-16.7h31.487zm-103.506 84.847 34.157-17.078c8.024-4.012 13.008-12.077 13.008-21.048v-46.72h9.159l6.496 21.112c2.016 6.551 7.976 10.953 14.83 10.953h20.224c6.854 0 12.813-4.402 14.83-10.953l6.496-21.111h9.159v46.72c0 8.971 4.984 17.036 13.008 21.048l34.157 17.078c16.725 8.362 29.936 21.402 38.414 37.102-6.252.848-10.588 2.363-14.558 3.757-5.481 1.924-10.214 3.585-20.357 3.585s-14.876-1.661-20.357-3.585c-5.918-2.077-12.626-4.431-25.325-4.431-12.691 0-19.396 2.354-25.311 4.432-5.476 1.923-10.206 3.584-20.34 3.584-10.123 0-14.848-1.661-20.318-3.584-5.911-2.078-12.61-4.432-25.292-4.432-12.688 0-19.391 2.354-25.304 4.432-5.474 1.923-10.202 3.584-20.332 3.584-10.126 0-14.853-1.661-20.326-3.584-3.964-1.393-8.293-2.907-14.532-3.756 8.477-15.702 21.689-28.743 38.414-37.105zm224.553 308.46c0 9.125-7.424 16.548-16.549 16.548h-240.484c-9.125 0-16.549-7.423-16.549-16.548v-229.13c0-9.625 1.527-18.972 4.403-27.771 7.127.424 11.194 1.844 15.771 3.453 5.912 2.077 12.613 4.432 25.298 4.432 12.688 0 19.39-2.354 25.304-4.432 5.475-1.923 10.202-3.584 20.332-3.584 10.123 0 14.847 1.661 20.318 3.584 5.911 2.078 12.61 4.432 25.293 4.432 12.691 0 19.396-2.354 25.311-4.432 5.476-1.923 10.206-3.584 20.34-3.584 10.143 0 14.876 1.661 20.357 3.585 5.918 2.077 12.626 4.431 25.325 4.431s19.406-2.354 25.324-4.431c4.585-1.609 8.66-3.031 15.803-3.454 2.876 8.799 4.403 18.146 4.403 27.771z"/><path d="m320.129 272.548h-128.258c-12.976 0-23.532 10.557-23.532 23.532v128.258c0 12.976 10.557 23.532 23.532 23.532h128.258c12.976 0 23.532-10.557 23.532-23.532v-128.257c0-12.976-10.557-23.533-23.532-23.533zm8.532 151.791c0 4.705-3.828 8.532-8.532 8.532h-126.184l79.382-79.382c2.929-2.929 2.929-7.677 0-10.606s-7.678-2.929-10.606 0l-47.088 47.088c1.351-17.901 9.091-35.104 22.057-48.071 15.525-15.525 37.126-23.573 58.728-22.107 1.463 21.601-6.582 43.201-22.107 58.727-6.3 6.3-13.533 11.391-21.498 15.131-3.75 1.761-5.361 6.228-3.601 9.977 1.761 3.749 6.228 5.361 9.977 3.601 9.541-4.48 18.197-10.571 25.729-18.102 20.233-20.234 29.853-49.105 25.731-77.23-.48-3.278-3.055-5.853-6.333-6.333-28.128-4.123-56.998 5.497-77.23 25.73-19.321 19.321-28.954 46.518-26.195 73.422l-17.549 17.55v-126.185c0-4.705 3.828-8.532 8.532-8.532h128.258c4.705 0 8.532 3.828 8.532 8.532v128.258z"/></g></svg>