<?xml version="1.0" encoding="iso-8859-1"?>
<!-- Generator: Adobe Illustrator 19.0.0, SVG Export Plug-In . SVG Version: 6.00 Build 0)  -->
<svg version="1.1" id="Capa_1" xmlns="http://www.w3.org/2000/svg" xmlns:xlink="http://www.w3.org/1999/xlink" x="0px" y="0px"
	 viewBox="0 0 512 512" style="enable-background:new 0 0 512 512;" xml:space="preserve">
<g>
	<g>
		<path d="M501.98,256.284h-20.205c0.098-1.948,0.166-3.897,0.166-5.843c0-63.353-51.542-114.895-114.895-114.895
			c-5.533,0-10.02,4.487-10.02,10.02v27.194c0,7.141-2.841,13.793-7.998,18.728c-5.104,4.885-11.777,7.395-18.818,7.096
			c-1.695-0.074-3.416-0.111-5.114-0.111c-22.298,0-45.905,6.199-64.77,17.005c-18.455,10.574-31.197,24.851-36.638,40.809h-32.426
			c-5.534,0-10.02,4.487-10.02,10.02v181.354c0,5.533,4.486,10.02,10.02,10.02H501.98c5.533,0,10.02-4.487,10.02-10.02V266.304
			C512,260.769,507.513,256.284,501.98,256.284z M325.096,218.51c1.409,0,2.837,0.031,4.238,0.092
			c12.557,0.55,24.458-3.937,33.549-12.638c9.146-8.751,14.182-20.545,14.182-33.206V156.11
			c47.613,5.021,84.838,45.411,84.838,94.33c0,1.947-0.075,3.897-0.193,5.843H245.527
			C258.204,233.276,293.927,218.51,325.096,218.51z M491.961,296.362H296.837c-5.533,0-10.02,4.487-10.02,10.02
			c0,5.533,4.487,10.02,10.02,10.02h195.124v121.237H201.283V316.401h15.397c5.534,0,10.02-4.487,10.02-10.02
			c0-5.533-4.486-10.02-10.02-10.02h-15.397v-20.039h290.678V296.362z"/>
	</g>
</g>
<g>
	<g>
		<path d="M280.757,101.197l-43.943-43.941c-3.913-3.912-10.257-3.912-14.17,0L2.935,276.966C1.056,278.846,0,281.393,0,284.051
			s1.056,5.206,2.935,7.085l43.942,43.941c1.957,1.956,4.521,2.935,7.085,2.935c2.564,0,5.129-0.979,7.085-2.935l219.71-219.71
			c1.88-1.88,2.936-4.428,2.936-7.085C283.692,105.624,282.636,103.075,280.757,101.197z M53.961,313.823l-29.772-29.772
			L229.73,78.509l29.772,29.772L53.961,313.823z"/>
	</g>
</g>
<g>
	<g>
		<path d="M266.58,304.428c-0.13-0.64-0.32-1.273-0.57-1.874c-0.25-0.611-0.562-1.191-0.923-1.732
			c-0.36-0.552-0.781-1.063-1.241-1.524c-0.461-0.461-0.982-0.882-1.524-1.242c-0.551-0.36-1.132-0.671-1.732-0.922
			c-0.602-0.25-1.232-0.451-1.874-0.581c-1.293-0.261-2.625-0.25-3.918,0c-0.631,0.13-1.262,0.331-1.874,0.581
			c-0.601,0.25-1.182,0.562-1.723,0.922c-0.551,0.361-1.062,0.781-1.533,1.242c-1.864,1.864-2.926,4.449-2.926,7.084
			c0,0.65,0.06,1.313,0.19,1.954c0.13,0.641,0.321,1.272,0.571,1.873c0.25,0.611,0.561,1.192,0.922,1.733
			c0.371,0.551,0.781,1.062,1.242,1.523c0.471,0.462,0.982,0.883,1.533,1.242c0.541,0.361,1.122,0.671,1.723,0.922
			c0.611,0.25,1.242,0.451,1.874,0.581c0.651,0.13,1.313,0.19,1.964,0.19c0.651,0,1.313-0.061,1.954-0.19
			c0.641-0.13,1.272-0.331,1.874-0.581s1.182-0.561,1.732-0.922c0.541-0.36,1.063-0.781,1.524-1.242
			c0.461-0.461,0.882-0.972,1.241-1.523c0.361-0.541,0.672-1.122,0.923-1.733c0.25-0.601,0.44-1.231,0.57-1.873
			c0.13-0.642,0.2-1.304,0.2-1.954C266.78,305.73,266.71,305.068,266.58,304.428z"/>
	</g>
</g>
<g>
</g>
<g>
</g>
<g>
</g>
<g>
</g>
<g>
</g>
<g>
</g>
<g>
</g>
<g>
</g>
<g>
</g>
<g>
</g>
<g>
</g>
<g>
</g>
<g>
</g>
<g>
</g>
<g>
</g>
</svg>
